<svg width="1794" height="1332" viewBox="0 0 1794 1332" fill="none" xmlns="http://www.w3.org/2000/svg">
<g clip-path="url(#clip0_38_2)">
<path d="M1653.96 342.004C1450.35 58.7865 1020.22 -56.0987 597.204 67.6353C373.568 133.05 157.941 264.117 51.0814 517.907C-139.941 971.582 261.135 1116.48 523.395 1162.65C650.21 1184.98 769.648 1222.49 878.792 1273.56C1075.15 1365.44 1422.72 1446.85 1684.81 1064.14C1874.77 786.752 1789.59 530.654 1653.96 342.004Z" fill="#8CA5FF"/>
<path d="M472.256 379.824C471.686 375.323 470.534 370.914 468.829 366.71C468.611 365.915 468.231 365.174 467.711 364.534C467.191 363.894 466.544 363.369 465.81 362.993C464.829 362.738 463.8 362.726 462.814 362.959L447.434 365.312C446.146 365.371 444.914 365.849 443.925 366.675C441.921 368.78 443.894 372.171 443.833 375.077C443.764 378.343 440.86 380.995 437.711 381.872C434.497 382.521 431.181 382.48 427.984 381.752L406.477 378.411C412.811 376.39 418.449 372.629 422.747 367.559C425.577 364.207 427.083 357.951 422.993 356.364C421.777 356.03 420.51 355.929 419.257 356.064C409.513 356.14 401.846 348.008 392.724 344.583C386.886 342.532 380.548 342.38 374.618 344.147C368.688 345.914 363.469 349.51 359.707 354.421L371.163 354.973C372.241 354.914 373.31 355.199 374.215 355.787C376.726 357.849 373.604 361.809 373.958 365.038C374.417 369.233 379.99 370.129 384.19 370.553C388.391 370.977 393.72 374.389 391.699 378.094C370.587 385.363 349.103 363.885 326.93 366.529C321.319 367.198 316.02 369.402 310.541 370.787C277.072 379.252 242.471 356.668 208.281 361.451C200.68 362.746 193.21 364.715 185.958 367.335C181.305 368.863 176.451 370.513 173.07 374.055C169.689 377.597 168.402 383.654 171.605 387.358C162.777 388.084 153.889 387.24 145.356 384.864C147.664 386.146 149.583 388.025 150.914 390.305C152.244 392.584 152.936 395.18 152.917 397.819C139.132 400.065 125.712 404.156 113.019 409.979C115.388 413.917 118.155 417.601 121.277 420.975L103.826 432.181C109.721 433.666 112.77 441.702 109.341 446.721C115.454 444.002 119.243 436.97 125.78 435.544C130.063 434.61 134.421 436.361 138.483 438.006C142.546 439.651 147.011 441.247 151.217 440.012C155.423 438.777 158.525 433.326 155.853 429.853C173.83 424.61 192.408 421.709 211.128 421.221C212.572 421.04 214.037 421.317 215.314 422.015C217.751 423.705 217.11 427.355 216.979 430.317C216.848 433.278 219.157 437.171 221.805 435.836C218.69 438.536 221.353 443.62 224.342 446.46C227.331 449.3 230.934 453.218 229.104 456.912C228.626 457.876 227.816 458.648 227.357 459.621C226 462.492 228.154 465.84 230.694 467.747C233.235 469.654 236.346 470.987 238.111 473.627C239.876 476.268 239.074 480.89 235.919 481.259L226.95 469.876C223.886 473.052 221.785 477.032 220.891 481.353C230.402 489.124 231.833 504.943 223.87 514.293C219.801 519.071 214.015 521.975 208.964 525.702C203.914 529.429 199.241 534.736 199.254 541.011C199.276 551.852 198.39 561.924 202.454 571.974C209.948 590.507 218.6 608.551 228.359 625.999C230.922 630.58 234.234 635.602 239.426 636.391C232.865 620.424 226.958 604.21 221.707 587.747C225.127 587.76 229.08 588.031 231.085 590.801C232.746 593.095 232.389 596.214 232.905 598.998C233.561 601.695 234.655 604.266 236.144 606.609L267.476 662.397C270.074 667.022 273.053 671.986 278.017 673.859C281.191 675.057 284.863 674.831 287.784 676.555C290.074 677.906 291.616 680.305 293.951 681.578C300.551 685.177 309.729 678.274 315.898 682.571C317.661 683.8 318.783 685.752 320.408 687.159C326.105 692.09 335.45 688.791 342.027 692.47C346.265 694.841 348.462 699.582 350.722 703.879C356.385 714.642 365.548 725.187 377.683 726.044C381.495 726.313 385.389 725.59 389.116 726.438C392.842 727.285 396.51 730.536 395.912 734.309C394.886 740.777 398.083 747.86 397.225 754.352C395.661 766.178 378.879 771.375 377.438 783.216C377.122 785.809 377.616 788.485 376.998 791.023C376.241 794.133 373.905 796.666 373.074 799.757C371.5 805.616 375.7 811.447 380.313 815.389C384.926 819.33 390.429 822.729 392.951 828.247C395.617 834.079 394.308 840.879 395.175 847.232C397.067 861.102 409.052 871.384 421.386 878.013C425.144 880.033 429.179 881.989 431.611 885.493C434.785 890.066 434.469 896.096 435.529 901.561C438.125 914.944 449.397 925.972 449.717 939.601C449.945 949.288 444.557 958.076 441.339 967.217C438.322 975.974 437.231 985.279 438.139 994.496C439.046 1003.71 441.933 1012.63 446.601 1020.63C449.008 1024.69 451.887 1028.52 453.59 1032.93C456.629 1040.79 455.643 1049.72 458.445 1057.67C462.149 1068.18 472.329 1076.86 471.354 1087.96C475.976 1097.55 486.18 1102.26 496.442 1105.12L514.832 1110.23C518.353 1111.21 522.033 1112.2 525.619 1111.49C529.204 1110.78 532.626 1107.81 532.534 1104.15C523.515 1102.12 514.208 1099.96 506.773 1094.47C499.339 1088.97 494.247 1079.19 497.067 1070.39C498.375 1066.31 501.158 1061.6 498.512 1058.23C496.998 1056.3 494.228 1055.79 492.519 1054.03C489.854 1051.28 490.77 1046.67 492.686 1043.35C494.602 1040.04 497.371 1037.08 498.143 1033.33C498.533 1031.24 498.273 1029.07 497.396 1027.13C496.52 1025.18 495.07 1023.55 493.24 1022.45C496.65 1021.17 499.751 1019.18 502.343 1016.62C504.736 1013.88 505.842 1009.67 503.959 1006.56C509.551 1007.27 516.153 1007.62 519.824 1003.34C522.755 999.93 522.554 994.825 521.396 990.477C520.237 986.13 518.28 981.907 518.219 977.408C531.118 978.019 544.046 977.581 556.875 976.098C555.02 969.853 550.804 964.575 545.122 961.385C550.932 960.402 556.225 953.45 558.061 947.853C559.897 942.255 559.428 936.159 558.294 930.379C557.858 928.891 557.798 927.318 558.12 925.801C558.774 923.717 560.823 922.445 562.718 921.357L591.557 904.802C593.278 903.94 594.838 902.789 596.169 901.399C599.19 897.851 598.742 892.496 597.195 888.101C595.648 883.706 593.17 879.573 592.574 874.953C590.792 861.133 605.592 851.217 610.586 838.209C612.547 833.104 612.946 827.554 613.325 822.099C613.733 816.24 613.763 809.435 609.262 805.659C604.948 802.04 598.207 802.848 593.693 799.481C589.554 796.395 588.126 790.4 583.605 787.907C579.499 785.643 574.35 787.083 569.784 786.018C561.743 784.143 556.683 774.88 548.471 774.022C543.837 773.538 538.593 775.803 534.796 773.105C531.45 770.729 531.316 765.952 530.679 761.898C529.562 755.599 526.542 749.792 522.023 745.261C517.505 740.73 511.705 737.692 505.407 736.556C500.63 735.79 495.43 736.081 491.365 733.457C487.25 730.8 485.363 725.825 482.131 722.145C476.921 716.214 468.716 714.107 461.029 712.301L429.764 704.954C424.214 703.65 417.06 702.958 414.081 707.818C413.2 709.668 412.575 711.63 412.226 713.65C411.11 717.303 408.864 720.509 405.811 722.806C402.758 725.103 399.055 726.373 395.234 726.434C392.614 721.967 388.369 718.683 383.385 717.269C380.214 716.386 376.821 716.288 373.797 714.989C372.15 714.185 370.685 713.054 369.491 711.665C368.296 710.276 367.398 708.658 366.851 706.91C366.304 705.162 366.12 703.321 366.309 701.499C366.499 699.677 367.058 697.913 367.953 696.315C369.756 693.107 370.452 689.395 369.935 685.752C369.417 682.11 367.714 678.738 365.089 676.159C359.772 671.388 352.081 670.235 344.951 670.712C343.084 666.64 346.206 662.045 349.571 659.085C352.935 656.126 357.02 653.216 357.753 648.797C358.905 641.845 350.031 636.565 343.293 638.637C336.555 640.71 332.255 647.252 329.412 653.7C327.781 657.4 326.394 661.296 323.822 664.416C321.249 667.536 317.105 669.77 313.187 668.768C307.638 667.351 305.496 660.762 304.268 655.172C302.62 647.67 300.963 640.065 301.308 632.393C301.654 624.721 304.241 616.844 309.901 611.65C319.124 603.187 333.272 604.017 345.719 605.367C342.778 602.055 343.505 596.474 346.651 593.356C348.312 591.881 350.308 590.833 352.465 590.304C354.623 589.774 356.877 589.778 359.033 590.316C362.784 591.096 366.162 593.115 368.625 596.048C372.162 600.359 373.168 606.179 375.842 611.072C378.515 615.964 384.527 620.138 389.447 617.513C393.697 615.245 394.372 609.355 393.314 604.657C392.256 599.959 390.01 595.391 390.393 590.591C391.124 581.432 400.623 575.919 409.004 572.147C417.386 568.375 426.984 563.302 428.312 554.21C428.357 552.43 428.693 550.669 429.306 548.997C430.236 547.521 431.528 546.306 433.059 545.469C457.522 529.31 482.391 512.953 510.351 504.123C511.805 503.664 511.976 504.175 513.459 503.815C515.533 502.616 514.159 499.3 512.17 497.965C510.18 496.629 507.522 495.605 507.017 493.263C506.646 491.542 507.661 489.852 507.924 488.111C508.572 483.833 503.452 479.883 499.476 481.593C497.23 478.62 501.674 475.165 505.267 474.176C516.057 471.208 527.134 469.399 538.308 468.781C539.598 468.576 540.919 468.801 542.068 469.42C543.945 470.72 543.705 473.7 542.375 475.555C541.045 477.41 538.976 478.575 537.318 480.144C535.507 481.908 534.216 484.135 533.584 486.582C532.953 489.029 533.006 491.602 533.738 494.021C539.572 496.987 545.914 500.04 552.375 498.995C558.836 497.951 564.571 490.694 561.534 484.899C558.706 479.502 550.211 478.285 548.75 472.37C547.039 465.445 556.847 459.286 554.638 452.504C553.67 449.533 550.708 447.784 548.435 445.639C545.75 443.01 543.924 439.63 543.197 435.944C542.469 432.258 542.873 428.438 544.357 424.986C540.655 425.637 536.85 425.391 533.263 424.269C529.675 423.147 526.409 421.181 523.739 418.537C518.807 413.562 514.873 405.714 507.869 405.936C501.443 406.141 495.908 413.635 489.899 411.349C488.42 410.786 486.862 409.641 485.429 410.312C484.96 410.617 484.566 411.024 484.277 411.503C483.988 411.982 483.812 412.521 483.762 413.078C482.235 420.376 484.862 428.691 480.883 434.997C476.553 441.859 466.537 442.811 461.287 448.999C458.438 452.358 457.334 456.885 454.715 460.426C452.095 463.968 446.536 466.219 443.393 463.133C444.938 459.958 445.359 456.354 444.589 452.909C443.819 449.464 441.903 446.381 439.153 444.166C436.235 442.263 433.089 440.733 429.79 439.613C426.103 438.053 422.596 436.099 419.329 433.786C417.693 432.799 416.363 431.377 415.489 429.678C414.797 427.552 414.89 425.248 415.751 423.183C417.345 418.616 420.157 414.57 423.883 411.483C427.61 408.395 432.109 406.384 436.895 405.666C441.08 405.097 445.951 405.298 448.721 402.11C450.186 400.424 450.955 397.874 453.082 397.189C454.443 396.916 455.856 397.089 457.109 397.685L472.731 403.181C474.474 403.967 476.392 404.284 478.296 404.101C479.239 403.973 480.1 403.494 480.705 402.759C481.31 402.024 481.615 401.087 481.558 400.137C481.059 397.544 477.067 396.3 477.43 393.684C477.634 392.837 478.09 392.071 478.738 391.488C484.375 385.49 491.27 380.812 498.927 377.79C506.585 374.767 514.817 373.474 523.033 374.003C525.005 377.24 521.886 381.073 519.292 383.836C516.697 386.599 514.612 391.536 517.75 393.663C519.036 394.319 520.466 394.641 521.909 394.6C525.755 395.12 529.493 396.253 532.98 397.956C538.378 400.304 543.672 402.874 548.863 405.664C548.405 402.243 547.967 398.639 549.264 395.44C550.562 392.241 554.249 389.732 557.469 390.978C560.573 392.178 562.164 396.286 565.471 396.662C569.882 397.164 571.622 390.651 569.779 386.614C567.937 382.577 564.29 379.196 563.985 374.77C563.78 371.783 564.917 368.079 562.53 366.271C561.681 365.728 560.717 365.39 559.714 365.284L500.122 354.322C496.583 353.671 491.471 354.17 491.314 357.764C491.226 359.769 493.018 361.753 492.225 363.597C491.377 365.566 488.594 365.386 486.567 366.082C483.421 367.162 481.843 370.895 482.145 374.206C482.698 377.496 483.972 380.623 485.877 383.362C482.001 381.742 476.132 381.444 472.256 379.824Z" fill="#002819"/>
<path d="M424.707 329.259C420.949 328.016 416.9 327.958 413.108 329.093C409.316 330.228 405.965 332.501 403.51 335.605C402.529 336.896 401.705 338.676 402.526 340.075C403.704 342.079 406.705 341.287 408.917 340.57C412.169 339.409 415.708 339.325 419.012 340.33C421.089 341.043 422.948 342.303 425.034 342.989C426.05 343.413 427.162 343.554 428.251 343.394C429.341 343.235 430.366 342.783 431.218 342.085C432.65 340.625 432.74 338.356 432.742 336.311C432.842 335.627 432.787 334.93 432.582 334.269C432.377 333.609 432.028 333.003 431.559 332.495C430.723 332.011 429.785 331.734 428.821 331.685C426.662 331.286 424.71 330.146 423.302 328.462" fill="#002819"/>
<path d="M446.195 323.279C445.354 323.233 444.515 323.404 443.76 323.776C443.004 324.148 442.357 324.708 441.88 325.402C441.404 326.096 441.114 326.901 441.039 327.74C440.963 328.578 441.105 329.422 441.45 330.19C444.033 330.894 446.731 331.07 449.383 330.707C450.706 330.501 451.939 329.909 452.926 329.005C453.912 328.101 454.609 326.925 454.928 325.625C451.806 326.193 448.583 325.578 445.89 323.9" fill="#002819"/>
<path d="M518.289 313.292C511.259 314.785 504.431 317.104 497.946 320.199C501.003 321.374 503.602 323.499 505.359 326.262C507.117 329.024 507.94 332.278 507.708 335.544C507.433 336.798 507.465 338.099 507.8 339.338C508.547 341.148 510.712 341.828 512.616 342.293C516.035 343.333 519.606 343.788 523.178 343.64C524.964 343.547 526.699 343.009 528.225 342.077C529.752 341.145 531.022 339.846 531.92 338.3C532.438 336.832 533.045 335.398 533.738 334.004C538.3 327.059 551.854 335.457 556.752 328.744C558.477 326.38 558.32 322.82 560.569 320.946C561.733 320.13 563.081 319.616 564.493 319.45C574.343 317.493 584.294 316.077 594.299 315.206C599.039 314.794 605.219 313.092 605.258 308.336C587.402 304.831 568.887 307.32 552.592 315.418C546.721 318.357 538.957 324.54 533.302 320.643C531.184 319.184 531.289 315.256 528.375 313.615C525.395 311.938 521.451 312.62 518.289 313.292Z" fill="#002819"/>
<path d="M576.684 324.207L585.066 325.817C583.523 325.749 581.984 326.01 580.55 326.584C579.116 327.157 577.821 328.03 576.751 329.143C575.681 330.257 574.862 331.586 574.346 333.041C573.831 334.496 573.632 336.045 573.763 337.583C581.612 340.204 590.17 337.653 598.439 338.002C606.707 338.35 616.328 344.254 614.916 352.405C614.489 354.87 613.065 357.333 613.806 359.722C614.325 361.396 615.802 362.584 616.636 364.127C618.374 367.341 616.985 371.405 614.791 374.327C612.596 377.248 609.647 379.579 607.721 382.684C602.93 390.406 605.652 400.389 608.506 409.015C609.331 412.275 610.855 415.316 612.971 417.929C617.199 422.422 624.089 422.813 630.259 422.903C634.75 422.969 639.895 422.747 642.735 419.269C646.443 414.728 643.85 407.643 646.291 402.314C648.508 397.474 654.157 395.398 659.275 393.925C668.65 391.227 678.205 388.933 687.069 384.858C698.075 379.798 708.362 371.912 720.459 371.26C723.853 371.078 727.331 371.478 730.6 370.548C733.869 369.619 736.975 366.794 736.727 363.405C736.516 360.51 734.066 358.384 732.151 356.202C730.236 354.019 728.732 350.663 730.492 348.354L762.201 342.434C759.953 336.311 758.203 328.247 763.367 324.262C765.231 322.824 767.726 322.249 769.313 320.511C772.017 317.548 770.657 312.444 767.535 309.924C764.414 307.404 760.193 306.819 756.194 306.487C742.29 305.333 728.307 306.096 714.376 306.859C687.145 308.351 659.914 309.843 632.682 311.335C627.2 311.636 620.871 311.177 615.843 313.046C611.587 314.629 608.561 317.534 603.693 318.555C594.706 320.439 584.816 319.164 576.684 324.207Z" fill="#002819"/>
<path d="M726.846 390.433C725.992 390.298 725.118 390.496 724.406 390.986C723.935 391.504 723.655 392.167 723.612 392.866C723.071 395.951 723.715 399.126 725.417 401.755C726.283 403.045 727.479 404.08 728.881 404.751C730.283 405.423 731.839 405.708 733.388 405.575C737.162 405.094 739.943 401.876 743.413 400.305C748.761 397.887 771.473 394.117 755.762 385.632C750.348 382.709 746.849 385.29 742.582 387.215C737.727 389.698 732.286 390.81 726.846 390.433V390.433Z" fill="#002819"/>
<path d="M864.452 319.417C862.617 320.167 861.083 321.502 860.088 323.215C859.629 324.085 859.523 325.097 859.79 326.043C860.058 326.989 860.679 327.797 861.525 328.298C862.21 328.546 862.937 328.661 863.665 328.637L871.124 328.86C874.293 328.954 878.251 329.629 879.103 332.681C879.735 334.948 878.32 337.86 880.028 339.48C880.76 340.047 881.641 340.391 882.565 340.469C885.022 341.1 887.588 341.183 890.081 340.712C895.508 339.257 892.656 335.945 894.366 332.997C896.981 328.486 896.528 331.217 901.137 328.632C904.54 326.722 908.938 323.259 906.097 318.393C901.157 309.93 871.741 315.782 864.452 319.417Z" fill="#002819"/>
<path d="M1011.68 315.163L1007.35 315.741C997.579 317.044 987.756 318.358 978.349 321.29C982.421 322.9 986.694 323.947 991.048 324.405C993.446 324.522 995.827 324.861 998.162 325.416C1002.32 326.652 1006.5 329.845 1010.52 328.209C1013.01 327.195 1013.82 324.605 1015.88 323.232C1017.3 322.284 1022.7 320.75 1023.31 319.793C1028.19 312.058 1015.43 314.663 1011.68 315.163Z" fill="#002819"/>
<path d="M1030.7 334.84C1024.91 338.074 1019.54 342.003 1014.71 346.541C1012.68 348.453 1010.6 350.831 1010.78 353.617C1011.03 357.32 1014.98 359.467 1018.39 360.914L1032.24 366.774C1033.92 364.407 1032.38 361.14 1030.65 358.815C1028.91 356.489 1026.85 353.799 1027.61 351C1028.49 347.807 1032.39 346.718 1035.65 346.168C1040.97 345.272 1055.33 345.344 1053.61 336.77C1051.57 326.667 1036.04 331.855 1030.7 334.84Z" fill="#002819"/>
<path d="M1027.91 906.558C1026.59 910.373 1026.47 914.867 1028.75 918.197C1031.31 921.934 1036.43 923.327 1040.86 922.379C1045.27 921.206 1049.2 918.679 1052.1 915.154C1054.75 912.201 1056.93 908.858 1058.57 905.242C1060.85 899.607 1062.46 893.723 1063.36 887.711L1067.66 865.149C1068.62 860.107 1068.58 844.647 1059.31 849.684C1056.78 851.06 1050.91 861.924 1048.26 865.005C1043.48 870.557 1042.84 875.945 1040.32 882.672C1037.17 891.097 1030.83 898.119 1027.91 906.558Z" fill="#002819"/>
<path d="M1517.63 1022.02C1514.59 1020.83 1511.65 1019.43 1508.82 1017.83C1505.98 1025.63 1504.47 1033.85 1504.35 1042.16L1525.11 1030.41C1528.23 1028.65 1531.77 1026.19 1531.71 1022.61C1531.73 1022.16 1531.64 1021.72 1531.44 1021.33C1531.24 1020.93 1530.93 1020.6 1530.56 1020.36C1530.1 1020.18 1529.59 1020.12 1529.1 1020.19C1526.02 1020.45 1523.22 1021.96 1520.31 1023.01C1517.41 1024.07 1514.01 1024.62 1511.35 1023.06" fill="#002819"/>
<path d="M1627.14 1028.99C1624.86 1029.61 1622.64 1030.41 1620.49 1031.38C1615.72 1033.8 1612.48 1038.4 1608.19 1041.59C1604.09 1044.65 1599.15 1046.32 1594.3 1047.95C1592.88 1049.21 1593.53 1051.75 1595.08 1052.86C1596.74 1053.81 1598.65 1054.23 1600.56 1054.09C1605.6 1054.2 1610.91 1054.25 1615.32 1051.82C1617.8 1050.21 1620.13 1048.36 1622.27 1046.31C1627.42 1042.01 1633.62 1039.17 1639.75 1036.42C1641.98 1035.58 1644.05 1034.35 1645.84 1032.78C1649.7 1028.99 1649.97 1023.13 1644.41 1021.84C1639.92 1020.8 1631.42 1027.61 1627.14 1028.99Z" fill="#002819"/>
<path d="M1675.53 997.394C1675.78 994.783 1675.43 992.15 1674.52 989.693C1673.6 987.236 1672.13 985.019 1670.23 983.21C1670.18 988.434 1670.02 994 1667.08 998.319C1664.98 1001.4 1661.7 1003.48 1659.41 1006.41C1657.11 1009.34 1656.09 1013.99 1658.78 1016.56C1660.5 1017.87 1662.6 1018.59 1664.76 1018.62C1670.12 1019.25 1676.32 1019.6 1680.08 1015.73C1682.13 1013.62 1683.13 1010.49 1685.63 1008.94C1686.56 1008.55 1687.39 1007.95 1688.06 1007.2C1689.09 1005.56 1687.45 1003.39 1685.61 1002.8C1683.76 1002.21 1681.72 1002.49 1679.87 1001.93C1678.01 1001.37 1676.31 999.278 1677.26 997.589" fill="#002819"/>
<path d="M1589.53 805.863C1586.72 806.547 1583.81 806.718 1580.94 806.37C1576.17 805.493 1572.45 801.9 1568.6 798.954C1559.45 791.987 1548.32 788.101 1536.82 787.854C1526.36 787.656 1515.8 790.49 1505.52 788.513C1506.19 792.246 1509.39 795.045 1512.8 796.709C1516.21 798.374 1519.97 799.211 1523.39 800.841C1528.88 803.478 1533.23 808.003 1535.65 813.588C1536.76 816.162 1537.45 818.964 1539.12 821.212C1542.54 825.807 1549.01 826.816 1554.73 826.44C1562.18 825.95 1569.96 823.808 1576.89 826.583C1582.19 828.705 1585.99 833.345 1590.42 836.952C1594.85 840.559 1601.08 843.237 1606.17 840.634C1600.89 838.925 1596.29 835.573 1593.05 831.069C1589.81 826.564 1588.09 821.142 1588.15 815.594C1593.14 816.052 1607.5 815.875 1606.73 807.405C1606.07 800.228 1593.81 805.089 1589.53 805.863Z" fill="#002819"/>
<path d="M1524.3 864.261C1525.18 859.407 1530.02 855.121 1528.52 850.423C1527.47 847.174 1523.7 845.57 1520.29 845.49C1516.88 845.41 1513.53 846.426 1510.11 846.522C1507.89 846.404 1505.67 846.435 1503.45 846.616C1496.68 847.729 1492.5 854.826 1486.12 857.349C1482.24 858.883 1477.88 858.59 1473.84 859.651C1464.68 862.059 1458.88 870.714 1452.47 877.692C1442.12 888.917 1428.64 896.777 1413.77 900.254C1408.56 901.46 1402.96 902.231 1398.82 905.613C1393.33 910.092 1391.98 917.771 1390.76 924.744C1387.39 944.002 1382.24 962.906 1375.37 981.212L1397.13 983.989C1401.27 984.517 1405.56 985.034 1409.54 983.809C1412.44 982.717 1415.18 981.256 1417.7 979.463C1427.39 973.449 1438.24 969.536 1449.54 967.976C1455.24 967.194 1461.21 967.051 1466.56 969.168C1471.9 971.285 1476.49 976.086 1476.94 981.817C1479.25 981.098 1481.72 981.021 1484.07 981.593C1486.42 982.165 1488.58 983.365 1490.3 985.065C1493.71 988.535 1495.94 992.987 1496.68 997.793C1497.25 1000.77 1497.83 1004.33 1500.59 1005.58C1502.84 1006.6 1505.43 1005.5 1507.89 1005.31C1516.26 1004.64 1523.2 1014.39 1531.42 1012.71C1540.24 1010.91 1542.4 997.707 1551.01 995.062C1555.95 993.544 1562.88 995.39 1565.24 990.796C1567.33 986.747 1563.17 982.074 1563.6 977.54C1564.13 971.957 1570.71 969.588 1575.79 967.206C1593.3 958.993 1601.61 935.436 1593.13 918.063C1588.1 907.769 1578.21 899.666 1576.38 888.357C1574.98 879.657 1578.41 869.511 1572.86 862.663C1570.03 859.179 1565.25 857.256 1563.58 853.099C1562.52 850.482 1562.94 847.513 1562.37 844.749C1561.8 841.985 1559.39 839.094 1556.66 839.81C1548.73 841.89 1546.2 866.367 1541.96 872.314C1535.51 881.354 1522.27 875.399 1524.3 864.261Z" fill="#002819"/>
<path d="M1377.78 815.112C1375.07 814.352 1372.11 813.604 1369.52 814.689C1366.92 815.774 1365.41 819.584 1367.49 821.474C1383.79 820.839 1400.18 820.209 1416.34 822.421C1434.96 824.97 1453.38 831.284 1472.08 829.426C1461.4 826.276 1450.54 823.758 1439.57 821.884L1421.26 818.389C1416.35 817.361 1411.39 816.594 1406.4 816.093C1395.95 815.231 1388.05 817.989 1377.78 815.112Z" fill="#002819"/>
<path d="M1394.09 758.377C1392.74 758.264 1391.07 758.167 1390.37 759.329C1389.7 760.44 1390.46 761.908 1390.1 763.154C1389.61 764.856 1387.38 765.291 1385.63 765.059C1383.87 764.827 1381.97 764.272 1380.41 765.119C1379.62 765.658 1379.03 766.438 1378.72 767.343C1378.41 768.248 1378.41 769.228 1378.7 770.136C1379.34 771.94 1380.37 773.58 1381.72 774.937C1384.02 777.837 1386.64 780.467 1389.54 782.776C1395.14 786.909 1402.72 788.9 1406.25 794.9C1406.75 796.062 1407.52 797.092 1408.49 797.903C1410.18 798.976 1412.39 798.16 1414.21 797.327L1420.6 794.408C1421.75 793.993 1422.78 793.295 1423.59 792.377C1425.05 790.396 1424.15 787.58 1422.93 785.447C1421.7 783.313 1420.13 781.105 1420.4 778.659C1420.87 774.298 1426.48 772.629 1428.78 768.898C1431.11 765.136 1429.59 760.29 1429.86 755.876C1430.18 750.714 1433.42 744 1428.2 740.144C1423.76 736.866 1419.52 739.895 1416.34 743.513C1409.62 751.144 1406.44 759.408 1394.09 758.377Z" fill="#002819"/>
<path d="M1432.89 681.255C1435.07 685.431 1439.62 687.923 1442 691.991C1444.58 696.399 1444.29 702.095 1447.09 706.368C1449.96 710.752 1455.73 713.079 1457.34 718.066C1459.1 723.51 1455.11 730.126 1458.29 734.883C1458.89 735.66 1459.63 736.306 1460.49 736.78C1461.34 737.253 1462.29 737.544 1463.26 737.633C1464.24 737.723 1465.22 737.609 1466.15 737.299C1467.07 736.99 1467.93 736.491 1468.65 735.834C1469.99 734.376 1470.71 732.451 1470.65 730.472C1470.59 728.492 1469.76 726.613 1468.34 725.237C1466.46 723.521 1463.75 722.78 1462.18 720.776C1461.36 719.62 1460.82 718.293 1460.59 716.896C1459.73 712.865 1459.87 708.686 1460.99 704.72C1461.41 703.713 1461.52 702.603 1461.29 701.535C1460.59 699.479 1457.8 699.333 1455.85 698.38C1451.41 696.214 1451.52 689.952 1452.29 685.076C1451.78 688.323 1440.21 682.801 1439 680.963C1436.59 677.31 1437.9 670.263 1437.42 666.227C1432.23 668.729 1430.22 676.148 1432.89 681.255Z" fill="#002819"/>
<path d="M1316.35 745.512C1314.21 743.123 1311 740.623 1308.13 742.064C1305.95 743.164 1305.35 746.184 1306.2 748.474C1307.25 750.698 1308.85 752.611 1310.86 754.024C1316.83 758.942 1323.25 763.381 1328.46 769.097C1337.77 779.328 1342.7 793.133 1352.83 802.557C1354.87 804.742 1357.56 806.201 1360.51 806.709C1363.46 806.984 1366.77 805.096 1367.11 802.153C1367.39 799.729 1365.7 797.559 1364.05 795.762C1360.11 791.484 1355.81 787.547 1352.09 783.077C1350.38 781.36 1349.3 779.109 1349.04 776.697C1349.02 774.29 1351.21 771.771 1353.54 772.367C1350.71 771.642 1348.6 766.917 1344.44 766.029C1340.96 765.287 1340.12 767.44 1335.98 765.665C1328.08 762.278 1321.88 751.702 1316.35 745.512Z" fill="#002819"/>
<path d="M1501.95 512.869C1499.69 512.196 1497.46 511.4 1495.28 510.486C1489.42 508.726 1481.66 513.035 1482.44 519.106C1482.96 523.14 1486.71 525.859 1488.79 529.358C1491.86 534.546 1491.04 541.127 1489.43 546.938C1489.03 548.737 1488.28 550.438 1487.21 551.94C1485.71 553.525 1483.93 554.808 1481.95 555.719C1474.03 560.158 1467.05 566.09 1461.38 573.185C1460.77 573.84 1460.34 574.649 1460.14 575.526C1459.86 577.575 1461.92 579.068 1463.09 580.778C1465.68 584.575 1463.81 589.685 1464.06 594.274C1464.02 594.922 1464.15 595.57 1464.43 596.156C1464.71 596.742 1465.14 597.246 1465.67 597.621C1467.23 598.414 1469.08 597.068 1469.93 595.536C1472.73 590.454 1470.62 582.296 1475.88 579.846C1476.88 579.382 1478.09 579.187 1478.75 578.312C1479.8 576.925 1478.79 574.871 1479.32 573.213C1480.12 570.724 1483.53 570.612 1486.14 570.722C1490.65 570.91 1495.15 570.311 1499.45 568.952C1501.13 568.551 1502.66 567.665 1503.85 566.403C1505.42 564.44 1505.28 561.648 1504.97 559.152C1503.39 546.708 1499.45 534.68 1493.35 523.718C1497.98 524.309 1503.01 524.82 1507 522.411C1509.23 521.062 1511.91 517.028 1510.8 514.282C1509.05 509.94 1505.89 513.595 1501.95 512.869Z" fill="#002819"/>
<path d="M909.067 581.309C909.621 584.276 910.165 587.401 909.192 590.258C908.219 593.115 905.159 595.503 902.27 594.627C900.027 593.948 898.732 591.694 897.139 589.975C888.283 580.419 868.303 585.952 862.832 574.129C860.6 569.304 862.117 563.523 860.594 558.429C859.633 555.486 857.722 552.944 855.159 551.204C852.597 549.464 849.529 548.624 846.437 548.816C843.617 549.223 840.872 550.042 838.29 551.247C820.993 558.171 802.834 562.711 784.313 564.741C780.793 564.956 777.311 565.589 773.941 566.628C766.336 569.383 761.14 576.431 757.442 583.622C753.744 590.814 751.014 598.6 746.056 604.989C740.845 611.704 733.544 616.406 726.733 621.492C724.109 623.182 721.925 625.471 720.359 628.17C718.882 631.2 718.965 634.724 719.08 638.093L720.472 679.004C720.651 684.267 720.876 689.717 723.232 694.426C726.174 700.307 731.987 704.158 736.019 709.353C740.134 714.691 742.278 721.287 742.087 728.023C742.001 730.732 741.732 733.935 743.842 735.636C745.126 736.468 746.628 736.9 748.158 736.877L803.523 741.406C813.262 742.203 824.055 743.513 830.414 750.93C833.415 754.43 835.825 759.464 840.422 759.839C842.394 760 844.312 759.191 846.284 759.035C851.259 758.641 855.63 762.416 858.388 766.574C862.563 772.91 864.458 780.478 863.762 788.033C863.31 792.776 861.839 797.386 861.522 802.14C860.315 820.227 875.655 835.941 875.952 854.066C876.127 864.728 871.064 874.689 866.127 884.141C874.094 896.206 867.57 912.271 870.742 926.375C873.752 939.755 884.913 950.231 887.694 963.661C888.968 969.809 889.041 977.375 894.465 980.541C896.845 981.701 899.483 982.229 902.126 982.075C918.069 982.263 933.83 978.677 948.12 971.608C954.827 968.282 961.777 963.315 962.948 955.924C963.893 949.963 960.869 943.295 963.946 938.103C967.574 931.983 976.866 932.468 982.203 927.763C990.862 920.131 984.11 905.574 987.618 894.58C990.771 884.697 1001.63 879.447 1007.01 870.578C1009.12 866.764 1010.64 862.647 1011.51 858.372C1013.98 848.155 1015.51 837.735 1016.1 827.241C1016.24 820.865 1016.71 814.501 1017.51 808.173C1023.31 772.147 1058.94 748.024 1070.51 713.416C1071.61 710.11 1072.13 705.708 1069.19 703.838C1067.44 703.006 1065.46 702.799 1063.59 703.252L1038.06 706.468C1034.89 706.867 1031.53 707.241 1028.62 705.925C1025.71 704.609 1023.62 700.927 1025.17 698.131C1029.5 690.283 1020.59 680.365 1016.62 672.322C1005.96 650.664 993.252 630.069 978.683 610.815C977.75 609.825 977.166 608.558 977.019 607.205L984.263 607.446C981.818 598.676 977.782 589.079 969.258 585.871C964.455 584.063 959.136 584.689 954.011 584.968C939.332 585.77 923.596 583.555 909.067 581.309Z" fill="#002819"/>
<path d="M954.023 383.675C957.864 387.752 962.168 392.075 967.726 392.786C977.542 394.041 984.6 383.895 989.093 375.081C989.26 377.328 990.297 379.422 991.983 380.916C993.67 382.411 995.873 383.189 998.125 383.085C1000.55 382.677 1002.86 381.773 1004.92 380.43C1024.37 369.806 1046.15 364.177 1068.31 364.049C1068.1 362.371 1068.52 360.673 1069.48 359.284C1070.45 357.894 1071.89 356.912 1073.54 356.525C1078.05 355.632 1082.11 359.527 1084.28 363.572C1086.45 367.617 1087.81 372.306 1091.26 375.334C1094.72 378.362 1101.4 378.23 1102.77 373.845C1104.08 369.636 1099.69 366.046 1096.05 363.564C1092.4 361.082 1088.56 356.489 1091.01 352.826C1109.63 348.706 1128.37 344.57 1147.43 343.751C1150.67 343.864 1153.9 343.307 1156.92 342.116C1159.83 340.69 1162.14 337.455 1161.36 334.315C1157.2 335.292 1152.84 335.009 1148.85 333.502C1144.85 331.995 1141.39 329.333 1138.92 325.854C1165.36 323.673 1193.48 321.814 1216.91 334.25C1219.72 340.284 1205.39 345.304 1209.23 350.746C1210.45 352.481 1212.9 352.685 1215.02 352.724C1231.31 353.027 1247.68 353.323 1263.78 350.866C1269.67 349.968 1275.61 348.7 1281.52 349.428C1291.35 350.641 1299.77 357.203 1309.45 359.342C1313.39 360.213 1317.81 360.242 1321.13 357.952C1324.45 355.662 1325.88 350.446 1323.15 347.469C1332.27 338.541 1347.39 340.753 1359.42 345.028C1371.44 349.302 1382.83 356.195 1395.55 357.148C1404.68 357.831 1413.93 355.378 1422.95 356.937C1428.61 357.917 1433.89 360.437 1439.42 361.985C1449.9 364.913 1460.98 364.295 1471.85 364.435C1499.6 364.809 1527.04 370.26 1552.82 380.518C1556.18 381.61 1559.25 383.424 1561.83 385.834C1564.23 388.402 1565.45 392.392 1563.84 395.514L1537.2 391.623C1539.71 396.562 1546.2 397.404 1551.47 399.108C1556.75 400.812 1562.21 406.633 1559.04 411.178C1553.33 409.359 1548.15 415.07 1545.27 420.324C1542.38 425.578 1538.86 431.87 1532.87 432.19C1527.51 432.477 1521.03 427.913 1517.53 431.988C1522.36 438.077 1526.5 444.684 1529.86 451.689C1533.31 458.879 1535.77 467.94 1531.11 474.41C1530.37 475.565 1529.26 476.428 1527.96 476.851C1524.14 477.816 1521.67 473.155 1518.93 470.33C1515.49 466.77 1510.28 465.762 1505.62 464.092C1500.95 462.422 1496.04 459.138 1495.67 454.199C1495.45 451.126 1497.07 448.269 1498.26 445.429C1500.27 440.642 1501.15 435.456 1500.83 430.275C1500.57 426.106 1499.4 421.769 1496.41 418.857C1493.41 415.944 1488.24 415.02 1485.02 417.688C1483.52 418.933 1482.32 420.924 1480.37 420.998C1476.93 421.13 1474.29 415.13 1471.52 417.178C1471.84 419.36 1471.39 421.587 1470.24 423.47C1461.97 430.655 1449.28 427.615 1438.62 430.153C1433.56 431.602 1428.7 433.72 1424.2 436.45C1422.51 437.17 1421.08 438.374 1420.07 439.909C1418.74 442.493 1420.21 445.802 1422.55 447.519C1425.04 449.043 1427.83 449.997 1430.73 450.31C1443.72 452.769 1456.9 456.576 1467.16 464.916C1477.41 473.256 1484.14 487.042 1480.89 499.853L1455.28 475.386C1456.25 485.659 1456.8 495.96 1456.93 506.29C1457.1 508.307 1456.82 510.336 1456.12 512.234C1454.3 516.266 1449.35 517.623 1445.01 518.513C1443.8 518.742 1442.66 519.224 1441.65 519.926C1440.64 520.629 1439.8 521.536 1439.17 522.589C1438.54 523.642 1438.13 524.816 1437.99 526.035C1437.84 527.254 1437.96 528.49 1438.33 529.661C1439.87 534.682 1443.71 538.596 1447.23 542.497C1450.75 546.397 1454.21 550.83 1454.67 556.062C1455.13 561.293 1451.18 567.19 1445.94 566.826C1441.97 566.55 1439.02 562.995 1437.32 559.392C1435.63 555.789 1434.62 551.776 1432.07 548.715C1424.37 539.449 1407.06 543.419 1400.15 533.541C1398.39 535.537 1397.17 537.949 1396.6 540.548C1396.04 543.148 1396.15 545.849 1396.92 548.395C1400.13 546.385 1404.53 548.252 1406.94 551.173C1409.36 554.093 1410.5 557.838 1412.39 561.118C1414.95 565.544 1419.02 569.468 1419.38 574.567C1419.28 576.495 1419.31 578.428 1419.47 580.352C1420.11 583.441 1422.72 585.66 1424.53 588.242C1428.75 594.251 1428.54 602.506 1425.82 609.324C1423.1 616.142 1418.22 621.839 1413.39 627.362C1404.95 637.009 1396.33 646.6 1386.32 654.612C1383.46 656.898 1380.42 659.146 1378.64 662.342C1376.86 665.538 1376.77 670.024 1379.5 672.455C1377.54 672.553 1374.04 673.515 1372.08 673.613C1371.39 665.769 1371.24 657.888 1371.63 650.024C1363.91 646.32 1355.6 656.241 1356.6 664.742C1357.59 673.243 1363.75 680.065 1368.13 687.42C1371.33 692.799 1373.71 699.07 1372.64 705.237C1371.57 711.404 1366.06 717.094 1359.82 716.55C1349.9 715.684 1345.75 701.446 1335.93 699.817C1335.06 699.613 1334.15 699.703 1333.34 700.073C1331.88 700.873 1331.63 702.824 1331.55 704.485C1331.14 712.638 1330.8 721.114 1333.98 728.63C1338.64 739.627 1350.67 748.862 1348.15 760.533C1334.55 754.215 1327.48 738.974 1324.27 724.333C1321.06 709.693 1320.52 694.323 1314.77 680.482C1310.4 686.08 1301.22 681.452 1297.23 675.58C1293.44 670.013 1291.11 663.573 1287.44 657.931C1283.77 652.289 1278.14 647.236 1271.42 646.926C1264.36 646.601 1258.25 651.438 1252.87 656.009C1248.45 659.768 1243.9 663.675 1241.32 668.87C1237.56 676.431 1238.54 685.344 1238.36 693.787C1238.16 702.914 1236.23 712.543 1230 719.225C1223.78 725.907 1212.29 728.234 1205.43 722.212C1201.85 719.068 1200.11 714.371 1198.57 709.863C1191.12 688.129 1184.91 665.988 1179.98 643.549C1178.83 648.671 1174.33 655.272 1170.03 652.255C1169.07 651.444 1168.29 650.438 1167.74 649.302C1159.72 635.72 1144.87 627.573 1129.87 622.688C1114.87 617.803 1099.09 615.524 1084.25 610.156C1075.94 607.146 1068 603.192 1060.59 598.372C1058.7 601.147 1057.59 604.381 1057.39 607.731C1057.19 611.081 1057.9 614.423 1059.45 617.403C1062.74 623.227 1070.19 626.597 1076.56 624.561C1079.86 623.509 1082.64 621.223 1085.91 620.095C1089.17 618.966 1093.56 619.52 1094.99 622.668C1096.36 625.68 1094.29 629.325 1095.32 632.471C1096.88 637.262 1104.11 637.631 1106.64 641.991C1108.52 645.235 1106.97 649.543 1104.28 652.16C1101.6 654.778 1098.02 656.214 1094.74 658.036C1084.1 663.948 1076.54 674.041 1067.24 681.893C1057.94 689.746 1044.83 695.479 1033.75 690.442C1036.39 677.075 1020.46 667.262 1017.53 653.956C1016.57 649.577 1017.07 644.925 1015.69 640.657C1013.7 634.478 1008.21 630.229 1003.71 625.546C998.256 619.805 994.004 613.029 991.209 605.619C988.414 598.208 987.133 590.313 987.44 582.4C987.683 576.901 988.694 571.312 987.44 565.952C986.187 560.592 981.747 555.404 976.246 555.647C963.68 556.202 947.851 557.136 941.258 546.429C938.905 542.608 937.881 537.011 941.283 534.083C943.683 532.018 947.225 532.213 950.377 532.522L978.688 535.306C985.31 535.957 992.468 536.495 998.15 533.035C1003.83 529.574 1006.29 520.389 1001.03 516.318C997.189 513.344 990.301 513.505 989.183 508.776C988.253 504.837 992.614 500.368 990.259 497.076C988.57 494.716 984.772 495.371 982.471 497.14C980.17 498.91 978.5 501.497 975.925 502.837C971.407 505.187 966.009 502.95 961.149 501.43C956.289 499.91 949.773 499.781 947.415 504.293C944.779 509.34 949.754 515.952 947.137 521.009C943.678 527.695 931.962 523.889 927.104 529.64C921.529 536.239 930.897 546.078 929.017 554.509C926.617 555.697 923.949 556.243 921.275 556.092C918.601 555.942 916.011 555.101 913.759 553.652C911.544 552.146 909.778 550.068 908.651 547.639C907.523 545.21 907.075 542.521 907.354 539.858C907.819 536.066 909.797 532.195 908.472 528.611C907.401 525.713 904.49 523.988 901.785 522.494L874.273 507.298C871.718 512.034 874.948 517.906 878.986 521.463C883.025 525.021 888.083 527.7 890.737 532.382C892.415 535.626 892.791 539.388 891.788 542.899C890.786 546.411 888.48 549.408 885.341 551.277C884.948 551.549 884.501 551.732 884.03 551.814C883.559 551.896 883.076 551.875 882.614 551.753C882.175 551.495 881.792 551.152 881.489 550.743C881.185 550.335 880.966 549.87 880.845 549.375C875.991 536.958 868.703 524.715 857.051 518.229C845.399 511.742 828.656 513.076 821.015 524.003C819.2 526.598 817.982 529.557 816.401 532.301C808.001 546.879 789.993 553.782 773.169 553.331C771.523 553.422 769.886 553.038 768.453 552.223C765.734 550.346 765.856 546.363 766.273 543.086L768.039 529.18C768.393 526.388 768.907 523.301 771.118 521.558C774.235 519.101 778.731 520.652 782.7 520.595C785.708 520.454 788.599 519.392 790.982 517.554C793.365 515.715 795.125 513.189 796.023 510.317C796.825 507.416 796.82 504.352 796.009 501.455C795.197 498.557 793.61 495.936 791.418 493.873C789.599 492.165 787.157 490.02 788.118 487.717C788.501 487.081 789.02 486.535 789.637 486.12C790.253 485.705 790.954 485.43 791.688 485.314C798.818 483.245 806.351 482.702 813.362 480.26C820.373 477.818 827.172 472.822 828.833 465.589C829.341 463.373 829.573 460.687 831.565 459.588C832.564 459.167 833.638 458.947 834.723 458.944C838.524 458.403 841.984 456.46 844.424 453.497C846.863 450.533 848.104 446.764 847.903 442.932C851.263 440.585 855.97 442.312 859.221 444.808C862.471 447.304 865.341 450.601 869.296 451.677C876.667 453.683 883.79 447.159 891.428 447.129C894.641 447.116 897.966 448.252 900.988 447.163C904.052 446.06 905.882 443.011 908.233 440.759C910.584 438.507 914.71 437.133 916.881 439.559L915.032 425.87C918.756 426.81 922.637 426.944 926.417 426.261C930.196 425.578 933.785 424.094 936.943 421.911L913.048 413.84C912.216 413.632 911.448 413.222 910.814 412.646C909.076 410.776 910.802 407.862 912.214 405.737C915.594 400.652 916.161 392.276 910.604 389.744C906.81 388.016 902.456 390.09 898.815 392.119L881.375 401.84C880.82 405.154 884.875 407.032 887.387 409.264C888.907 410.614 889.982 412.393 890.473 414.365C890.963 416.338 890.845 418.413 890.134 420.317C889.423 422.222 888.152 423.867 886.488 425.036C884.825 426.205 882.847 426.844 880.813 426.869C881.962 428.362 882.76 430.093 883.148 431.936C883.536 433.778 883.505 435.685 883.056 437.513L871.322 438.357C870.005 438.622 868.637 438.355 867.516 437.614C866.261 436.5 866.431 434.548 866.14 432.895C865.438 428.907 861.531 426.112 857.544 425.395C853.556 424.678 849.477 425.597 845.529 426.504C843.852 427.107 842.011 427.065 840.364 426.385C839.42 425.772 838.702 424.866 838.321 423.807C836.59 419.612 838.208 414.68 840.988 411.093C843.768 407.505 847.574 404.882 850.992 401.895C859.166 394.726 865.172 385.415 868.33 375.014C874.79 372.309 881.478 368.633 887.938 365.928C897.897 360.887 909.066 358.724 920.188 359.682L942.065 360.1C948.542 360.223 955.194 360.382 961.183 362.85C967.172 365.318 972.435 370.657 972.848 377.119C972.973 377.85 972.91 378.602 972.664 379.302C972.419 380.002 972 380.629 971.446 381.123C970.6 381.585 969.642 381.8 968.68 381.746C962.639 381.958 960.064 383.463 954.023 383.675Z" fill="#002819"/>
<path d="M779.65 452.208C780.505 451.4 781.12 450.371 781.428 449.236C781.736 448.1 781.725 446.902 781.396 445.773C779.316 444.971 777.054 444.765 774.863 445.178C772.673 445.592 770.641 446.608 768.997 448.113C767.701 449.423 766.584 450.899 765.675 452.503C762.801 457.191 760.258 462.79 761.924 468.031C762.06 468.602 762.308 469.141 762.655 469.615C763.002 470.089 763.44 470.489 763.944 470.792C764.69 471.091 765.495 471.218 766.298 471.161C769.465 471.156 772.628 470.962 775.772 470.578C777.702 470.342 779.944 469.797 780.691 468.002C781.671 465.642 779.298 462.971 779.99 460.511C780.445 459.411 781.135 458.423 782.011 457.617C782.446 457.211 782.78 456.71 782.987 456.152C783.194 455.595 783.268 454.997 783.203 454.406C782.924 453.251 781.156 452.597 780.519 453.599" fill="#002819"/>
<path d="M796.072 430.927C793.259 430.282 790.359 430.1 787.487 430.388C786.852 430.37 786.222 430.513 785.657 430.804C785.11 431.207 784.714 431.782 784.53 432.436C783.924 434.382 784.073 436.485 784.948 438.326C785.823 440.167 787.36 441.611 789.252 442.371C790.283 442.608 791.271 443.004 792.18 443.547C794.608 445.43 793.06 449.279 793.52 452.316C794.036 455.727 797.339 458.59 796.733 461.986C796.256 464.662 793.398 466.78 793.858 469.459C794.34 472.264 797.901 473.107 800.74 473.332C802.385 473.619 804.079 473.426 805.616 472.773C807.157 471.72 808.253 470.133 808.692 468.32C809.854 464.862 810.343 461.214 810.131 457.572C810.118 455.916 809.702 454.288 808.918 452.828C808.064 451.672 807.116 450.588 806.085 449.585C800.646 443.262 806.373 433.829 796.072 430.927Z" fill="#002819"/>
<path opacity="0.8" d="M1511.26 926.302C1511.26 926.302 1094.7 687.295 915.371 732.58C915.371 732.58 535.311 773.463 491.264 863.406C491.264 863.406 370.45 486.025 326.403 473.446" stroke="#00FFFF" stroke-width="2" stroke-miterlimit="10"/>
<path opacity="0.8" d="M491.264 863.406C561.11 677.231 1190.35 470.93 1190.35 470.93C1101 493.573 915.372 732.58 915.372 732.58C915.372 732.58 522.726 447.029 326.403 473.446C326.403 473.446 1190.98 501.749 1511.26 926.303" stroke="#00FFFF" stroke-width="2" stroke-miterlimit="10"/>
<path d="M326.403 491.686C336.481 491.686 344.651 483.519 344.651 473.446C344.651 463.372 336.481 455.206 326.403 455.206C316.325 455.206 308.155 463.372 308.155 473.446C308.155 483.519 316.325 491.686 326.403 491.686Z" fill="#00FFFF"/>
<path d="M491.264 881.646C501.342 881.646 509.512 873.479 509.512 863.406C509.512 853.332 501.342 845.166 491.264 845.166C481.186 845.166 473.016 853.332 473.016 863.406C473.016 873.479 481.186 881.646 491.264 881.646Z" fill="#00FFFF"/>
<path d="M1190.35 489.17C1200.43 489.17 1208.6 481.004 1208.6 470.93C1208.6 460.856 1200.43 452.69 1190.35 452.69C1180.27 452.69 1172.1 460.856 1172.1 470.93C1172.1 481.004 1180.27 489.17 1190.35 489.17Z" fill="#00FFFF"/>
<path d="M1511.26 944.543C1521.34 944.543 1529.51 936.376 1529.51 926.303C1529.51 916.229 1521.34 908.062 1511.26 908.062C1501.18 908.062 1493.01 916.229 1493.01 926.303C1493.01 936.376 1501.18 944.543 1511.26 944.543Z" fill="#00FFFF"/>
<path d="M915.372 750.82C925.45 750.82 933.62 742.654 933.62 732.58C933.62 722.507 925.45 714.34 915.372 714.34C905.294 714.34 897.124 722.507 897.124 732.58C897.124 742.654 905.294 750.82 915.372 750.82Z" fill="#00FFFF"/>
</g>
<defs>
<clipPath id="clip0_38_2">
<rect width="1794" height="1332" fill="white"/>
</clipPath>
</defs>
</svg>
