<svg width="2241" height="1222" viewBox="0 0 2241 1222" fill="none" xmlns="http://www.w3.org/2000/svg">
<path d="M544.4 788.127C512.438 801.161 497.093 837.638 510.127 869.6C523.161 901.562 559.638 916.907 591.6 903.873L544.4 788.127ZM1096.91 397.514C1109.89 365.533 1094.5 329.079 1062.51 316.092C1030.53 303.105 994.079 318.504 981.092 350.486L1096.91 397.514ZM591.6 903.873L598.495 901.062L551.294 785.315L544.4 788.127L591.6 903.873ZM1093.9 404.922L1096.91 397.514L981.092 350.486L978.084 357.893L1093.9 404.922ZM598.495 901.062C823.746 809.206 1002.38 630.309 1093.9 404.922L978.084 357.893C899.239 552.063 745.348 706.182 551.294 785.315L598.495 901.062Z" fill="#015235"/>
<path d="M556.106 816.832C539.997 823.401 532.263 841.785 538.832 857.894C545.401 874.003 563.785 881.737 579.894 875.168L556.106 816.832ZM1068.19 385.851C1074.73 369.732 1066.97 351.36 1050.85 344.814C1034.73 338.269 1016.36 346.03 1009.81 362.149L1068.19 385.851ZM579.894 875.168L586.789 872.356L563 814.02L556.106 816.832L579.894 875.168ZM1065.18 393.259L1068.19 385.851L1009.81 362.149L1006.81 369.556L1065.18 393.259ZM586.789 872.356C804.303 783.656 976.8 610.904 1065.18 393.259L1006.81 369.556C924.817 571.468 764.79 731.732 563 814.02L586.789 872.356Z" fill="#00A067"/>
<path d="M1063.56 788.11C1095.53 801.12 1110.9 837.585 1097.89 869.557C1084.88 901.529 1048.41 916.901 1016.44 903.89L1063.56 788.11ZM510.109 397.557C497.099 365.585 512.471 329.12 544.443 316.109C576.415 303.099 612.88 318.471 625.89 350.443L510.109 397.557ZM1016.44 903.89L1008.94 900.836L1056.05 785.055L1063.56 788.11L1016.44 903.89ZM513.164 405.063L510.109 397.557L625.89 350.443L628.945 357.949L513.164 405.063ZM1008.94 900.836C783.617 809.148 604.852 630.383 513.164 405.063L628.945 357.949C707.934 552.061 861.939 706.066 1056.05 785.055L1008.94 900.836Z" fill="#015235"/>
<path d="M1051.87 816.823C1067.99 823.38 1075.73 841.759 1069.18 857.873C1062.62 873.987 1044.24 881.734 1028.13 875.177L1051.87 816.823ZM538.823 385.873C532.266 369.759 540.013 351.38 556.127 344.823C572.241 338.266 590.62 346.013 597.177 362.127L538.823 385.873ZM1028.13 875.177L1020.62 872.123L1044.37 813.769L1051.87 816.823L1028.13 875.177ZM541.877 393.379L538.823 385.873L597.177 362.127L600.231 369.633L541.877 393.379ZM1020.62 872.123C803.041 783.583 630.417 610.959 541.877 393.379L600.231 369.633C682.37 571.484 842.516 731.63 1044.37 813.769L1020.62 872.123Z" fill="#00A067"/>
<path d="M385.4 379.262C402.1 363.148 418.213 349.525 433.74 338.393C449.561 327.26 460.4 321.693 466.26 321.693C475.342 321.693 479.883 330.336 479.883 347.621C479.883 367.836 477.539 389.809 472.852 413.539C468.457 436.977 462.305 459.975 454.395 482.533C441.504 520.912 424.512 563.539 403.418 610.414C382.324 656.996 361.816 698.158 341.895 733.9C329.004 756.459 312.305 783.705 291.797 815.639C275.684 840.248 261.328 858.412 248.73 870.131C236.426 881.557 221.631 890.932 204.346 898.256C189.111 904.115 175.928 908.07 164.795 910.121C151.318 912.465 140.479 913.637 132.275 913.637C117.627 913.637 106.494 910.121 98.877 903.09C89.7949 893.422 81.4453 876.576 73.8281 852.553C64.7461 823.256 55.5176 784.584 46.1426 736.537C37.0605 688.49 30.9082 646.742 27.6855 611.293C25.3418 586.684 24.1699 552.113 24.1699 507.582C24.1699 426.43 32.959 377.064 50.5371 359.486C56.6895 353.334 68.1152 346.156 84.8145 337.953C101.807 329.457 118.506 323.012 134.912 318.617C147.803 315.102 158.643 313.344 167.432 313.344C189.111 313.344 199.951 325.355 199.951 349.379C199.951 361.977 198.633 386.293 195.996 422.328C191.309 494.984 188.965 551.967 188.965 593.275C188.965 665.346 192.041 719.398 198.193 755.434C201.709 772.719 204.346 784.73 206.104 791.469C217.236 776.82 226.465 763.344 233.789 751.039C241.406 738.441 248.73 725.111 255.762 711.049C270.117 681.752 280.225 659.047 286.084 642.934C304.834 596.938 319.629 548.598 330.469 497.914C337.5 461.879 345.557 436.098 354.639 420.57C361.377 407.68 371.631 393.91 385.4 379.262Z" fill="#00A067"/>
<path d="M1386.33 624.916L1381.93 643.812C1380.47 650.258 1379.15 655.824 1377.98 660.512C1376.8 664.906 1375.78 668.861 1374.9 672.377C1374.31 675.6 1373.58 678.969 1372.7 682.484C1351.61 772.719 1334.62 829.115 1321.73 851.674C1315.87 861.635 1307.08 870.57 1295.36 878.48C1258.45 902.504 1229.44 914.516 1208.35 914.516C1193.7 914.516 1181.25 909.242 1170.99 898.695C1161.03 887.855 1156.05 874.525 1156.05 858.705C1156.05 829.994 1168.65 776.967 1193.85 699.623C1201.46 675.014 1208.35 653.627 1214.5 635.463C1220.95 617.299 1228.56 596.791 1237.35 573.939C1246.43 551.088 1256.54 526.771 1267.67 500.99C1279.1 475.209 1287.16 457.045 1291.84 446.498C1253.17 452.064 1215.96 454.848 1180.22 454.848C1144.19 454.848 1126.17 442.25 1126.17 417.055C1126.17 400.941 1137.89 380.434 1161.33 355.531C1177.15 339.418 1191.79 328.285 1205.27 322.133C1218.75 315.687 1235.01 312.465 1254.05 312.465C1266.36 312.465 1283.2 312.904 1304.59 313.783C1325.97 314.369 1355.71 315.98 1393.8 318.617L1406.1 319.496L1417.97 320.814C1450.19 322.572 1471.43 324.623 1481.69 326.967C1491.94 329.311 1500.73 333.852 1508.05 340.59C1513.91 347.328 1516.84 355.092 1516.84 363.881C1516.84 373.256 1514.94 382.924 1511.13 392.885C1507.62 402.553 1503.22 409.73 1497.95 414.418C1490.62 422.621 1469.97 429.506 1435.98 435.072C1433.05 435.072 1429.98 435.365 1426.76 435.951L1417.97 437.709C1425 444.74 1428.51 452.504 1428.51 461C1428.51 469.203 1424.41 486.928 1416.21 514.174C1413.57 520.912 1407.27 543.031 1397.31 580.531L1390.72 606.898L1386.33 624.916ZM1618.36 774.33C1631.83 765.248 1642.09 756.166 1649.12 747.084C1664.65 728.041 1676.66 706.215 1685.15 681.605C1691.89 665.492 1697.17 647.475 1700.97 627.553C1704.78 607.631 1706.69 589.027 1706.69 571.742C1706.69 555.629 1703.32 547.572 1696.58 547.572C1687.21 547.572 1672.85 568.227 1653.51 609.535C1642.09 634.438 1632.71 659.34 1625.39 684.242C1618.36 708.852 1614.84 730.092 1614.84 747.963C1614.84 754.115 1616.01 762.904 1618.36 774.33ZM1619.24 788.393C1622.46 805.971 1633.88 814.76 1653.51 814.76C1675.49 814.76 1704.05 801.869 1739.21 776.088C1759.71 761.146 1773.48 753.676 1780.52 753.676C1789.3 753.676 1797.51 756.02 1805.12 760.707C1812.74 765.395 1816.55 770.229 1816.55 775.209C1816.55 780.482 1812.3 787.367 1803.81 795.863C1788.28 811.391 1770.41 826.625 1750.19 841.566C1729.98 856.215 1710.5 868.52 1691.75 878.48C1673 888.148 1654.25 895.912 1635.5 901.771C1616.75 907.338 1600.05 910.121 1585.4 910.121C1548.78 910.121 1519.48 899.721 1497.51 878.92C1475.54 857.826 1464.55 829.848 1464.55 794.984C1464.55 768.324 1470.26 738.295 1481.69 704.896C1493.41 671.205 1509.08 639.711 1528.71 610.414C1551.85 576.137 1580.27 547.572 1613.96 524.721C1655.56 497.182 1695.41 483.412 1733.49 483.412C1761.03 483.412 1782.57 492.201 1798.09 509.779C1813.91 527.064 1821.82 550.941 1821.82 581.41C1821.82 605.141 1815.53 629.896 1802.93 655.678C1790.62 681.459 1772.31 706.215 1748 729.945C1728.07 749.867 1708.45 765.395 1689.11 776.527C1670.07 787.66 1653.37 793.227 1639.01 793.227C1632.57 793.227 1625.97 791.615 1619.24 788.393ZM2088.13 582.289C2099.85 549.184 2109.67 514.613 2117.58 478.578C2125.49 442.25 2129.44 414.418 2129.44 395.082C2129.44 389.809 2127.98 387.172 2125.05 387.172C2120.36 387.172 2112.16 397.719 2100.44 418.812C2088.72 439.613 2078.9 460.854 2070.99 482.533C2054 530.287 2040.82 569.984 2031.44 601.625C2022.36 632.973 2016.06 659.34 2012.55 680.727C2009.03 702.113 2007.27 723.939 2007.27 746.205C2007.27 765.248 2009.32 779.164 2013.43 787.953C2017.82 796.742 2024.71 801.137 2034.08 801.137C2050.19 801.137 2068.21 794.105 2088.13 780.043C2108.05 765.688 2126.07 746.938 2142.19 723.793C2154.78 706.508 2164.6 697.865 2171.63 697.865C2180.71 697.865 2185.25 705.043 2185.25 719.398C2185.25 750.746 2175.44 781.361 2155.81 811.244C2136.18 841.127 2110.84 865.443 2079.78 884.193C2049.02 902.65 2017.53 911.879 1985.3 911.879C1945.75 911.879 1913.52 899.428 1888.62 874.525C1863.72 849.623 1851.27 817.104 1851.27 776.967C1851.27 744.154 1858.3 705.775 1872.36 661.83C1886.42 617.592 1905.17 573.207 1928.61 528.676C1952.34 483.852 1978.27 443.275 2006.39 406.947C2034.52 370.619 2062.35 342.787 2089.89 323.451C2106.88 310.854 2125.78 304.555 2146.58 304.555C2162.4 304.555 2176.76 309.535 2189.65 319.496C2202.54 329.164 2212.5 342.787 2219.53 360.365C2226.56 377.943 2230.08 397.426 2230.08 418.812C2230.08 464.809 2220.99 509.779 2202.83 553.725C2184.96 597.67 2159.91 635.756 2127.68 667.982C2112.45 683.51 2097.8 695.668 2083.74 704.457C2069.68 713.246 2057.37 717.641 2046.82 717.641C2036.57 717.641 2031.44 713.686 2031.44 705.775C2031.44 701.381 2035.25 693.031 2042.87 680.727C2053.12 664.613 2065.13 640.297 2078.9 607.777C2080.08 604.555 2081.39 601.186 2082.86 597.67C2084.32 593.861 2086.08 588.734 2088.13 582.289Z" fill="#00A067"/>
<rect x="800.302" y="665.854" width="42.9955" height="63.628" transform="rotate(-45.0872 800.302 665.854)" fill="#00A067"/>
<rect x="724" y="726.122" width="58.2305" height="63.628" rx="10" transform="rotate(-37.0957 724 726.122)" fill="#00A067"/>
</svg>
